{
  "accessors": [
    {
      "bufferView": 0,
      "componentType": 5125,
      "count": 21264,
      "type": "SCALAR"
    },
    {
      "bufferView": 1,
      "componentType": 5126,
      "count": 5282,
      "max": [
        1.0,
        0.544187068939209,
        0.983880698680878
      ],
      "min": [
        -1.0,
        -0.544187128543854,
        -0.983880758285522
      ],
      "type": "VEC3"
    },
    {
      "bufferView": 2,
      "componentType": 5126,
      "count": 5282,
      "type": "VEC3"
    },
    {
      "bufferView": 3,
      "componentType": 5126,
      "count": 5282,
      "type": "VEC2"
    }
  ],
  "asset": {
    "generator": "Substance Painter 2019.1.1",
    "version": "2.0"
  },
  "bufferViews": [
    {
      "buffer": 0,
      "byteLength": 85056,
      "target": 34963
    },
    {
      "buffer": 0,
      "byteLength": 63384,
      "byteOffset": 85056,
      "target": 34962
    },
    {
      "buffer": 0,
      "byteLength": 63384,
      "byteOffset": 148440,
      "target": 34962
    },
    {
      "buffer": 0,
      "byteLength": 42256,
      "byteOffset": 211824,
      "target": 34962
    }
  ],
  "buffers": [
    {
      "byteLength": 254080,
      "uri": "Robot.bin"
    }
  ],
  "images": [
    {
      "uri": "DefaultMaterial_baseColor.png"
    },
    {
      "uri": "DefaultMaterial_occlusionRoughnessMetallic.png"
    },
    {
      "uri": "DefaultMaterial_normal.png"
    }
  ],
  "materials": [
    {
      "alphaMode": "OPAQUE",
      "name": "DefaultMaterial",
      "normalTexture": {
        "index": 2
      },
      "occlusionTexture": {
        "index": 1
      },
      "pbrMetallicRoughness": {
        "baseColorTexture": {
          "index": 0
        },
        "metallicRoughnessTexture": {
          "index": 1
        }
      }
    }
  ],
  "meshes": [
    {
      "name": "Poly Draw Object",
      "primitives": [
        {
          "attributes": {
            "NORMAL": 2,
            "POSITION": 1,
            "TEXCOORD_0": 3
          },
          "indices": 0,
          "material": 0,
          "mode": 4
        }
      ]
    }
  ],
  "nodes": [
    {
      "children": [
        1
      ],
      "name": "root",
      "scale": [
        52.0308074951172,
        52.0308074951172,
        52.0308074951172
      ],
      "translation": [
        0.0,
        72.3688049316406,
        -0.838710784912109
      ]
    },
    {
      "children": [
        2
      ],
      "name": "Poly Draw Object"
    },
    {
      "mesh": 0,
      "name": "Poly Draw Object"
    }
  ],
  "samplers": [
    {
      "magFilter": 9729,
      "minFilter": 9985,
      "wrapS": 10497,
      "wrapT": 10497
    }
  ],
  "scene": 0,
  "scenes": [
    {
      "name": "Scene",
      "nodes": [
        0
      ]
    }
  ],
  "textures": [
    {
      "sampler": 0,
      "source": 0
    },
    {
      "sampler": 0,
      "source": 1
    },
    {
      "sampler": 0,
      "source": 2
    }
  ]
}